<svg xmlns="http://www.w3.org/2000/svg" width="720" height="140" viewBox="0 0 720 140" font-family="-apple-system,BlinkMacSystemFont,Segoe UI,Helvetica,Arial,sans-serif"><style>svg{--cf-bg:#0d1117;--cf-bg-alt:#161b22;--cf-border:#21262d;--cf-text:#e6edf3;--cf-text-dim:#8b949e;--cf-text-faint:#6e7681;--cf-accent:#5eead4;--cf-accent-soft:rgba(94,234,212,0.16);--cf-green:#3fb950;--cf-amber:#d29922;--cf-red:#f85149;--cf-spark:#5eead4;--cf-spark-bg:rgba(94,234,212,0.18)}@media (prefers-color-scheme: light){svg{--cf-bg:#ffffff;--cf-bg-alt:#f6f8fa;--cf-border:#d0d7de;--cf-text:#1f2328;--cf-text-dim:#656d76;--cf-text-faint:#8c959f;--cf-accent:#0d9488;--cf-accent-soft:rgba(13,148,136,0.12);--cf-green:#1a7f37;--cf-amber:#9a6700;--cf-red:#cf222e;--cf-spark:#0d9488;--cf-spark-bg:rgba(13,148,136,0.12)}}</style><rect width="720" height="140" rx="12" fill="var(--cf-bg)" stroke="var(--cf-border)"/><text x="18" y="26" font-size="13" font-weight="600" fill="var(--cf-text)">braedonsaunders/openbooks</text><text x="702" y="26" text-anchor="end" font-size="10" fill="var(--cf-text-faint)" font-family="ui-monospace,SFMono-Regular,Menlo,monospace">@961c7dc</text><g transform="translate(18,46)"><text x="0" y="0" font-size="9" font-weight="600" fill="var(--cf-text-dim)" letter-spacing="0.8">FILES</text><text x="0" y="28" font-size="22" font-weight="700" fill="var(--cf-text)">1.7K</text><g transform="translate(0,40)"><svg width="64" height="14" viewBox="0 0 64 14" preserveAspectRatio="none"><path d="M0 4.61 L2.21 14 L4.41 9.51 L6.62 5.63 L8.83 5.49 L11.03 4.37 L13.24 4.37 L15.45 5.35 L17.66 5.29 L19.86 5.29 L22.07 5.1 L24.28 5.07 L26.48 1.78 L28.69 1.75 L30.9 1.68 L33.1 1.31 L35.31 0.25 L37.52 0.23 L39.72 0.23 L41.93 0.23 L44.14 0.16 L46.34 0.08 L48.55 0.06 L50.76 0.06 L52.97 0.06 L55.17 0.02 L57.38 0.02 L59.59 0.02 L61.79 0.02 L64 0 L64 14 L0 14 Z" fill="var(--cf-spark-bg)" stroke="none"/><path d="M0 4.61 L2.21 14 L4.41 9.51 L6.62 5.63 L8.83 5.49 L11.03 4.37 L13.24 4.37 L15.45 5.35 L17.66 5.29 L19.86 5.29 L22.07 5.1 L24.28 5.07 L26.48 1.78 L28.69 1.75 L30.9 1.68 L33.1 1.31 L35.31 0.25 L37.52 0.23 L39.72 0.23 L41.93 0.23 L44.14 0.16 L46.34 0.08 L48.55 0.06 L50.76 0.06 L52.97 0.06 L55.17 0.02 L57.38 0.02 L59.59 0.02 L61.79 0.02 L64 0" fill="none" stroke="var(--cf-spark)" stroke-width="1.4" stroke-linecap="round" stroke-linejoin="round"/></svg></g></g><g transform="translate(154.8,46)"><text x="0" y="0" font-size="9" font-weight="600" fill="var(--cf-text-dim)" letter-spacing="0.8">FNS</text><text x="0" y="28" font-size="22" font-weight="700" fill="var(--cf-text)">4K</text><g transform="translate(0,40)"><svg width="64" height="14" viewBox="0 0 64 14" preserveAspectRatio="none"><path d="M0 14 L2.21 14 L4.41 7.81 L6.62 2.96 L8.83 2.86 L11.03 1.69 L13.24 1.69 L15.45 1.69 L17.66 1.69 L19.86 1.68 L22.07 1.57 L24.28 1.56 L26.48 1.47 L28.69 1.47 L30.9 1.39 L33.1 0.89 L35.31 0.19 L37.52 0.18 L39.72 0.17 L41.93 0.17 L44.14 0.15 L46.34 0.06 L48.55 0.02 L50.76 0.03 L52.97 0.02 L55.17 0.01 L57.38 0.01 L59.59 0.01 L61.79 0.01 L64 0 L64 14 L0 14 Z" fill="var(--cf-spark-bg)" stroke="none"/><path d="M0 14 L2.21 14 L4.41 7.81 L6.62 2.96 L8.83 2.86 L11.03 1.69 L13.24 1.69 L15.45 1.69 L17.66 1.69 L19.86 1.68 L22.07 1.57 L24.28 1.56 L26.48 1.47 L28.69 1.47 L30.9 1.39 L33.1 0.89 L35.31 0.19 L37.52 0.18 L39.72 0.17 L41.93 0.17 L44.14 0.15 L46.34 0.06 L48.55 0.02 L50.76 0.03 L52.97 0.02 L55.17 0.01 L57.38 0.01 L59.59 0.01 L61.79 0.01 L64 0" fill="none" stroke="var(--cf-spark)" stroke-width="1.4" stroke-linecap="round" stroke-linejoin="round"/></svg></g></g><g transform="translate(291.6,46)"><text x="0" y="0" font-size="9" font-weight="600" fill="var(--cf-text-dim)" letter-spacing="0.8">LOC</text><text x="0" y="28" font-size="22" font-weight="700" fill="var(--cf-text)">595.4K</text><g transform="translate(0,40)"><svg width="64" height="14" viewBox="0 0 64 14" preserveAspectRatio="none"><path d="M0 11.21 L2.21 14 L4.41 7.58 L6.62 5.13 L8.83 5.08 L11.03 4.46 L13.24 4.46 L15.45 3.86 L17.66 3.86 L19.86 3.86 L22.07 3.8 L24.28 3.79 L26.48 2.23 L28.69 2.23 L30.9 2.19 L33.1 0.66 L35.31 0.18 L37.52 0.17 L39.72 0.16 L41.93 0.16 L44.14 0.14 L46.34 0.06 L48.55 0.03 L50.76 0.02 L52.97 0.02 L55.17 0.01 L57.38 0.01 L59.59 0.01 L61.79 0.01 L64 0 L64 14 L0 14 Z" fill="var(--cf-spark-bg)" stroke="none"/><path d="M0 11.21 L2.21 14 L4.41 7.58 L6.62 5.13 L8.83 5.08 L11.03 4.46 L13.24 4.46 L15.45 3.86 L17.66 3.86 L19.86 3.86 L22.07 3.8 L24.28 3.79 L26.48 2.23 L28.69 2.23 L30.9 2.19 L33.1 0.66 L35.31 0.18 L37.52 0.17 L39.72 0.16 L41.93 0.16 L44.14 0.14 L46.34 0.06 L48.55 0.03 L50.76 0.02 L52.97 0.02 L55.17 0.01 L57.38 0.01 L59.59 0.01 L61.79 0.01 L64 0" fill="none" stroke="var(--cf-spark)" stroke-width="1.4" stroke-linecap="round" stroke-linejoin="round"/></svg></g></g><g transform="translate(428.40000000000003,46)"><text x="0" y="0" font-size="9" font-weight="600" fill="var(--cf-text-dim)" letter-spacing="0.8">LANGS</text><text x="0" y="28" font-size="22" font-weight="700" fill="var(--cf-text)">14</text><g transform="translate(0,40)"><svg width="64" height="14" viewBox="0 0 64 14" preserveAspectRatio="none"><path d="M0 0 L2.21 14 L4.41 14 L6.62 14 L8.83 14 L11.03 14 L13.24 14 L15.45 14 L17.66 14 L19.86 14 L22.07 14 L24.28 14 L26.48 14 L28.69 14 L30.9 14 L33.1 14 L35.31 0 L37.52 0 L39.72 0 L41.93 0 L44.14 0 L46.34 0 L48.55 0 L50.76 0 L52.97 0 L55.17 0 L57.38 0 L59.59 0 L61.79 0 L64 0 L64 14 L0 14 Z" fill="var(--cf-spark-bg)" stroke="none"/><path d="M0 0 L2.21 14 L4.41 14 L6.62 14 L8.83 14 L11.03 14 L13.24 14 L15.45 14 L17.66 14 L19.86 14 L22.07 14 L24.28 14 L26.48 14 L28.69 14 L30.9 14 L33.1 14 L35.31 0 L37.52 0 L39.72 0 L41.93 0 L44.14 0 L46.34 0 L48.55 0 L50.76 0 L52.97 0 L55.17 0 L57.38 0 L59.59 0 L61.79 0 L64 0" fill="none" stroke="var(--cf-spark)" stroke-width="1.4" stroke-linecap="round" stroke-linejoin="round"/></svg></g></g><g transform="translate(565.2,46)"><text x="0" y="0" font-size="9" font-weight="600" fill="var(--cf-text-dim)" letter-spacing="0.8">TESTS</text><text x="0" y="28" font-size="22" font-weight="700" fill="var(--cf-text)">68</text><g transform="translate(0,40)"><svg width="64" height="14" viewBox="0 0 64 14" preserveAspectRatio="none"><path d="M0 14 L2.21 14 L4.41 12.22 L6.62 6.44 L8.83 5.78 L11.03 3.78 L13.24 3.78 L15.45 3.78 L17.66 3.78 L19.86 3.78 L22.07 3.78 L24.28 3.78 L26.48 3.78 L28.69 3.78 L30.9 3.78 L33.1 3.11 L35.31 0.89 L37.52 0.89 L39.72 0.89 L41.93 0.89 L44.14 0.67 L46.34 0.22 L48.55 0.22 L50.76 0.22 L52.97 0.22 L55.17 0 L57.38 0 L59.59 0 L61.79 0 L64 0 L64 14 L0 14 Z" fill="var(--cf-spark-bg)" stroke="none"/><path d="M0 14 L2.21 14 L4.41 12.22 L6.62 6.44 L8.83 5.78 L11.03 3.78 L13.24 3.78 L15.45 3.78 L17.66 3.78 L19.86 3.78 L22.07 3.78 L24.28 3.78 L26.48 3.78 L28.69 3.78 L30.9 3.78 L33.1 3.11 L35.31 0.89 L37.52 0.89 L39.72 0.89 L41.93 0.89 L44.14 0.67 L46.34 0.22 L48.55 0.22 L50.76 0.22 L52.97 0.22 L55.17 0 L57.38 0 L59.59 0 L61.79 0 L64 0" fill="none" stroke="var(--cf-spark)" stroke-width="1.4" stroke-linecap="round" stroke-linejoin="round"/></svg></g></g><a href="https://github.com/braedonsaunders/codeflow" target="_blank"><text x="702" y="130" text-anchor="end" font-size="9" fill="var(--cf-text-faint)">powered by <tspan font-weight="600" fill="var(--cf-accent)">codeflow</tspan></text></a></svg>