<svg xmlns="http://www.w3.org/2000/svg" width="720" height="140" viewBox="0 0 720 140" font-family="-apple-system,BlinkMacSystemFont,Segoe UI,Helvetica,Arial,sans-serif"><style>svg{--cf-bg:#0d1117;--cf-bg-alt:#161b22;--cf-border:#21262d;--cf-text:#e6edf3;--cf-text-dim:#8b949e;--cf-text-faint:#6e7681;--cf-accent:#5eead4;--cf-accent-soft:rgba(94,234,212,0.16);--cf-green:#3fb950;--cf-amber:#d29922;--cf-red:#f85149;--cf-spark:#5eead4;--cf-spark-bg:rgba(94,234,212,0.18)}@media (prefers-color-scheme: light){svg{--cf-bg:#ffffff;--cf-bg-alt:#f6f8fa;--cf-border:#d0d7de;--cf-text:#1f2328;--cf-text-dim:#656d76;--cf-text-faint:#8c959f;--cf-accent:#0d9488;--cf-accent-soft:rgba(13,148,136,0.12);--cf-green:#1a7f37;--cf-amber:#9a6700;--cf-red:#cf222e;--cf-spark:#0d9488;--cf-spark-bg:rgba(13,148,136,0.12)}}</style><rect width="720" height="140" rx="12" fill="var(--cf-bg)" stroke="var(--cf-border)"/><text x="18" y="26" font-size="13" font-weight="600" fill="var(--cf-text)">braedonsaunders/openbooks</text><text x="702" y="26" text-anchor="end" font-size="10" fill="var(--cf-text-faint)" font-family="ui-monospace,SFMono-Regular,Menlo,monospace">@ce52457</text><g transform="translate(18,46)"><text x="0" y="0" font-size="9" font-weight="600" fill="var(--cf-text-dim)" letter-spacing="0.8">FILES</text><text x="0" y="28" font-size="22" font-weight="700" fill="var(--cf-text)">3.5K</text><g transform="translate(0,40)"><svg width="64" height="14" viewBox="0 0 64 14" preserveAspectRatio="none"><path d="M0 14 L2.13 13.69 L4.27 13.53 L6.4 13.07 L8.53 12.91 L10.67 12.44 L12.8 3.73 L14.93 3.58 L17.07 3.27 L19.2 3.11 L21.33 2.96 L23.47 2.8 L25.6 2.64 L27.73 2.49 L29.87 2.33 L32 2.18 L34.13 1.4 L36.27 1.24 L38.4 1.09 L40.53 0.93 L42.67 0.93 L44.8 0.93 L46.93 0.78 L49.07 0.62 L51.2 0.62 L53.33 0.47 L55.47 0.31 L57.6 0.16 L59.73 0 L61.87 0 L64 0 L64 14 L0 14 Z" fill="var(--cf-spark-bg)" stroke="none"/><path d="M0 14 L2.13 13.69 L4.27 13.53 L6.4 13.07 L8.53 12.91 L10.67 12.44 L12.8 3.73 L14.93 3.58 L17.07 3.27 L19.2 3.11 L21.33 2.96 L23.47 2.8 L25.6 2.64 L27.73 2.49 L29.87 2.33 L32 2.18 L34.13 1.4 L36.27 1.24 L38.4 1.09 L40.53 0.93 L42.67 0.93 L44.8 0.93 L46.93 0.78 L49.07 0.62 L51.2 0.62 L53.33 0.47 L55.47 0.31 L57.6 0.16 L59.73 0 L61.87 0 L64 0" fill="none" stroke="var(--cf-spark)" stroke-width="1.4" stroke-linecap="round" stroke-linejoin="round"/></svg></g></g><g transform="translate(154.8,46)"><text x="0" y="0" font-size="9" font-weight="600" fill="var(--cf-text-dim)" letter-spacing="0.8">FNS</text><text x="0" y="28" font-size="22" font-weight="700" fill="var(--cf-text)">11.3K</text><g transform="translate(0,40)"><svg width="64" height="14" viewBox="0 0 64 14" preserveAspectRatio="none"><path d="M0 14 L2.13 13.88 L4.27 13.82 L6.4 13.46 L8.53 13.46 L10.67 13.4 L12.8 2.03 L14.93 1.97 L17.07 1.74 L19.2 1.38 L21.33 1.26 L23.47 1.02 L25.6 0.96 L27.73 0.9 L29.87 0.66 L32 0.66 L34.13 0.42 L36.27 0.42 L38.4 0.42 L40.53 0.36 L42.67 0.3 L44.8 0.3 L46.93 0.12 L49.07 0.06 L51.2 0.06 L53.33 0 L55.47 0 L57.6 0 L59.73 0 L61.87 0 L64 0 L64 14 L0 14 Z" fill="var(--cf-spark-bg)" stroke="none"/><path d="M0 14 L2.13 13.88 L4.27 13.82 L6.4 13.46 L8.53 13.46 L10.67 13.4 L12.8 2.03 L14.93 1.97 L17.07 1.74 L19.2 1.38 L21.33 1.26 L23.47 1.02 L25.6 0.96 L27.73 0.9 L29.87 0.66 L32 0.66 L34.13 0.42 L36.27 0.42 L38.4 0.42 L40.53 0.36 L42.67 0.3 L44.8 0.3 L46.93 0.12 L49.07 0.06 L51.2 0.06 L53.33 0 L55.47 0 L57.6 0 L59.73 0 L61.87 0 L64 0" fill="none" stroke="var(--cf-spark)" stroke-width="1.4" stroke-linecap="round" stroke-linejoin="round"/></svg></g></g><g transform="translate(291.6,46)"><text x="0" y="0" font-size="9" font-weight="600" fill="var(--cf-text-dim)" letter-spacing="0.8">LOC</text><text x="0" y="28" font-size="22" font-weight="700" fill="var(--cf-text)">871.6K</text><g transform="translate(0,40)"><svg width="64" height="14" viewBox="0 0 64 14" preserveAspectRatio="none"><path d="M0 14 L2.13 13.86 L4.27 13.72 L6.4 13.35 L8.53 13.25 L10.67 12.99 L12.8 3.44 L14.93 3.31 L17.07 3.09 L19.2 2.95 L21.33 2.83 L23.47 2.69 L25.6 2.58 L27.73 2.49 L29.87 2.28 L32 2.22 L34.13 1.89 L36.27 1.79 L38.4 1.68 L40.53 1.45 L42.67 1.25 L44.8 1.25 L46.93 0.93 L49.07 0.7 L51.2 0.68 L53.33 0.53 L55.47 0.36 L57.6 0.29 L59.73 0.21 L61.87 0.13 L64 0 L64 14 L0 14 Z" fill="var(--cf-spark-bg)" stroke="none"/><path d="M0 14 L2.13 13.86 L4.27 13.72 L6.4 13.35 L8.53 13.25 L10.67 12.99 L12.8 3.44 L14.93 3.31 L17.07 3.09 L19.2 2.95 L21.33 2.83 L23.47 2.69 L25.6 2.58 L27.73 2.49 L29.87 2.28 L32 2.22 L34.13 1.89 L36.27 1.79 L38.4 1.68 L40.53 1.45 L42.67 1.25 L44.8 1.25 L46.93 0.93 L49.07 0.7 L51.2 0.68 L53.33 0.53 L55.47 0.36 L57.6 0.29 L59.73 0.21 L61.87 0.13 L64 0" fill="none" stroke="var(--cf-spark)" stroke-width="1.4" stroke-linecap="round" stroke-linejoin="round"/></svg></g></g><g transform="translate(428.40000000000003,46)"><text x="0" y="0" font-size="9" font-weight="600" fill="var(--cf-text-dim)" letter-spacing="0.8">LANGS</text><text x="0" y="28" font-size="22" font-weight="700" fill="var(--cf-text)">15</text><g transform="translate(0,40)"><svg width="64" height="14" viewBox="0 0 64 14" preserveAspectRatio="none"><path d="M0 7 L2.13 7 L4.27 7 L6.4 7 L8.53 7 L10.67 7 L12.8 7 L14.93 7 L17.07 7 L19.2 7 L21.33 7 L23.47 7 L25.6 7 L27.73 7 L29.87 7 L32 7 L34.13 7 L36.27 7 L38.4 7 L40.53 7 L42.67 7 L44.8 7 L46.93 7 L49.07 7 L51.2 7 L53.33 7 L55.47 7 L57.6 7 L59.73 7 L61.87 7 L64 7 L64 14 L0 14 Z" fill="var(--cf-spark-bg)" stroke="none"/><path d="M0 7 L2.13 7 L4.27 7 L6.4 7 L8.53 7 L10.67 7 L12.8 7 L14.93 7 L17.07 7 L19.2 7 L21.33 7 L23.47 7 L25.6 7 L27.73 7 L29.87 7 L32 7 L34.13 7 L36.27 7 L38.4 7 L40.53 7 L42.67 7 L44.8 7 L46.93 7 L49.07 7 L51.2 7 L53.33 7 L55.47 7 L57.6 7 L59.73 7 L61.87 7 L64 7" fill="none" stroke="var(--cf-spark)" stroke-width="1.4" stroke-linecap="round" stroke-linejoin="round"/></svg></g></g><g transform="translate(565.2,46)"><text x="0" y="0" font-size="9" font-weight="600" fill="var(--cf-text-dim)" letter-spacing="0.8">TESTS</text><text x="0" y="28" font-size="22" font-weight="700" fill="var(--cf-text)">900</text><g transform="translate(0,40)"><svg width="64" height="14" viewBox="0 0 64 14" preserveAspectRatio="none"><path d="M0 14 L2.13 13.79 L4.27 13.59 L6.4 13.18 L8.53 12.97 L10.67 12.97 L12.8 3.91 L14.93 3.71 L17.07 3.5 L19.2 3.29 L21.33 3.09 L23.47 2.88 L25.6 2.68 L27.73 2.47 L29.87 2.26 L32 2.06 L34.13 1.85 L36.27 1.65 L38.4 1.44 L40.53 1.24 L42.67 1.24 L44.8 1.24 L46.93 1.03 L49.07 0.82 L51.2 0.82 L53.33 0.62 L55.47 0.41 L57.6 0.21 L59.73 0 L61.87 0 L64 0 L64 14 L0 14 Z" fill="var(--cf-spark-bg)" stroke="none"/><path d="M0 14 L2.13 13.79 L4.27 13.59 L6.4 13.18 L8.53 12.97 L10.67 12.97 L12.8 3.91 L14.93 3.71 L17.07 3.5 L19.2 3.29 L21.33 3.09 L23.47 2.88 L25.6 2.68 L27.73 2.47 L29.87 2.26 L32 2.06 L34.13 1.85 L36.27 1.65 L38.4 1.44 L40.53 1.24 L42.67 1.24 L44.8 1.24 L46.93 1.03 L49.07 0.82 L51.2 0.82 L53.33 0.62 L55.47 0.41 L57.6 0.21 L59.73 0 L61.87 0 L64 0" fill="none" stroke="var(--cf-spark)" stroke-width="1.4" stroke-linecap="round" stroke-linejoin="round"/></svg></g></g><a href="https://github.com/braedonsaunders/codeflow" target="_blank"><text x="702" y="130" text-anchor="end" font-size="9" fill="var(--cf-text-faint)">powered by <tspan font-weight="600" fill="var(--cf-accent)">codeflow</tspan></text></a></svg>