<svg xmlns="http://www.w3.org/2000/svg" width="720" height="140" viewBox="0 0 720 140" font-family="-apple-system,BlinkMacSystemFont,Segoe UI,Helvetica,Arial,sans-serif"><style>svg{--cf-bg:#0d1117;--cf-bg-alt:#161b22;--cf-border:#21262d;--cf-text:#e6edf3;--cf-text-dim:#8b949e;--cf-text-faint:#6e7681;--cf-accent:#5eead4;--cf-accent-soft:rgba(94,234,212,0.16);--cf-green:#3fb950;--cf-amber:#d29922;--cf-red:#f85149;--cf-spark:#5eead4;--cf-spark-bg:rgba(94,234,212,0.18)}@media (prefers-color-scheme: light){svg{--cf-bg:#ffffff;--cf-bg-alt:#f6f8fa;--cf-border:#d0d7de;--cf-text:#1f2328;--cf-text-dim:#656d76;--cf-text-faint:#8c959f;--cf-accent:#0d9488;--cf-accent-soft:rgba(13,148,136,0.12);--cf-green:#1a7f37;--cf-amber:#9a6700;--cf-red:#cf222e;--cf-spark:#0d9488;--cf-spark-bg:rgba(13,148,136,0.12)}}</style><rect width="720" height="140" rx="12" fill="var(--cf-bg)" stroke="var(--cf-border)"/><text x="18" y="26" font-size="13" font-weight="600" fill="var(--cf-text)">braedonsaunders/openbooks</text><text x="702" y="26" text-anchor="end" font-size="10" fill="var(--cf-text-faint)" font-family="ui-monospace,SFMono-Regular,Menlo,monospace">@0d0cd7b</text><g transform="translate(18,46)"><text x="0" y="0" font-size="9" font-weight="600" fill="var(--cf-text-dim)" letter-spacing="0.8">FILES</text><text x="0" y="28" font-size="22" font-weight="700" fill="var(--cf-text)">2.9K</text><g transform="translate(0,40)"><svg width="64" height="14" viewBox="0 0 64 14" preserveAspectRatio="none"><path d="M0 14 L2.13 13.91 L4.27 13.91 L6.4 13.91 L8.53 13.91 L10.67 13.91 L12.8 13.91 L14.93 13.91 L17.07 13.91 L19.2 13.89 L21.33 13.89 L23.47 13.83 L25.6 13.74 L27.73 13.74 L29.87 13.77 L32 0.11 L34.13 0.11 L36.27 0.11 L38.4 0.11 L40.53 0.11 L42.67 0.11 L44.8 0.11 L46.93 0.09 L49.07 0.06 L51.2 0.03 L53.33 0.03 L55.47 0.03 L57.6 0.03 L59.73 0.03 L61.87 0.03 L64 0 L64 14 L0 14 Z" fill="var(--cf-spark-bg)" stroke="none"/><path d="M0 14 L2.13 13.91 L4.27 13.91 L6.4 13.91 L8.53 13.91 L10.67 13.91 L12.8 13.91 L14.93 13.91 L17.07 13.91 L19.2 13.89 L21.33 13.89 L23.47 13.83 L25.6 13.74 L27.73 13.74 L29.87 13.77 L32 0.11 L34.13 0.11 L36.27 0.11 L38.4 0.11 L40.53 0.11 L42.67 0.11 L44.8 0.11 L46.93 0.09 L49.07 0.06 L51.2 0.03 L53.33 0.03 L55.47 0.03 L57.6 0.03 L59.73 0.03 L61.87 0.03 L64 0" fill="none" stroke="var(--cf-spark)" stroke-width="1.4" stroke-linecap="round" stroke-linejoin="round"/></svg></g></g><g transform="translate(154.8,46)"><text x="0" y="0" font-size="9" font-weight="600" fill="var(--cf-text-dim)" letter-spacing="0.8">FNS</text><text x="0" y="28" font-size="22" font-weight="700" fill="var(--cf-text)">8.1K</text><g transform="translate(0,40)"><svg width="64" height="14" viewBox="0 0 64 14" preserveAspectRatio="none"><path d="M0 14 L2.13 14 L4.27 14 L6.4 14 L8.53 14 L10.67 14 L12.8 14 L14.93 14 L17.07 13.99 L19.2 13.99 L21.33 13.99 L23.47 14 L25.6 13.88 L27.73 13.88 L29.87 13.91 L32 0.43 L34.13 0.43 L36.27 0.43 L38.4 0.43 L40.53 0.43 L42.67 0.43 L44.8 0.43 L46.93 0.42 L49.07 0.41 L51.2 0.37 L53.33 0.37 L55.47 0.37 L57.6 0.37 L59.73 0.36 L61.87 0.35 L64 0 L64 14 L0 14 Z" fill="var(--cf-spark-bg)" stroke="none"/><path d="M0 14 L2.13 14 L4.27 14 L6.4 14 L8.53 14 L10.67 14 L12.8 14 L14.93 14 L17.07 13.99 L19.2 13.99 L21.33 13.99 L23.47 14 L25.6 13.88 L27.73 13.88 L29.87 13.91 L32 0.43 L34.13 0.43 L36.27 0.43 L38.4 0.43 L40.53 0.43 L42.67 0.43 L44.8 0.43 L46.93 0.42 L49.07 0.41 L51.2 0.37 L53.33 0.37 L55.47 0.37 L57.6 0.37 L59.73 0.36 L61.87 0.35 L64 0" fill="none" stroke="var(--cf-spark)" stroke-width="1.4" stroke-linecap="round" stroke-linejoin="round"/></svg></g></g><g transform="translate(291.6,46)"><text x="0" y="0" font-size="9" font-weight="600" fill="var(--cf-text-dim)" letter-spacing="0.8">LOC</text><text x="0" y="28" font-size="22" font-weight="700" fill="var(--cf-text)">680K</text><g transform="translate(0,40)"><svg width="64" height="14" viewBox="0 0 64 14" preserveAspectRatio="none"><path d="M0 1.6 L2.13 1.21 L4.27 1.21 L6.4 1.21 L8.53 1.19 L10.67 1.19 L12.8 1.19 L14.93 1.19 L17.07 1.06 L19.2 1.03 L21.33 1.02 L23.47 0.99 L25.6 0 L27.73 0 L29.87 0.42 L32 14 L34.13 13.99 L36.27 13.85 L38.4 13.55 L40.53 13.38 L42.67 13.21 L44.8 13.03 L46.93 12.69 L49.07 12.17 L51.2 11.47 L53.33 11.17 L55.47 10.73 L57.6 10.59 L59.73 9.97 L61.87 9.31 L64 7.26 L64 14 L0 14 Z" fill="var(--cf-spark-bg)" stroke="none"/><path d="M0 1.6 L2.13 1.21 L4.27 1.21 L6.4 1.21 L8.53 1.19 L10.67 1.19 L12.8 1.19 L14.93 1.19 L17.07 1.06 L19.2 1.03 L21.33 1.02 L23.47 0.99 L25.6 0 L27.73 0 L29.87 0.42 L32 14 L34.13 13.99 L36.27 13.85 L38.4 13.55 L40.53 13.38 L42.67 13.21 L44.8 13.03 L46.93 12.69 L49.07 12.17 L51.2 11.47 L53.33 11.17 L55.47 10.73 L57.6 10.59 L59.73 9.97 L61.87 9.31 L64 7.26" fill="none" stroke="var(--cf-spark)" stroke-width="1.4" stroke-linecap="round" stroke-linejoin="round"/></svg></g></g><g transform="translate(428.40000000000003,46)"><text x="0" y="0" font-size="9" font-weight="600" fill="var(--cf-text-dim)" letter-spacing="0.8">LANGS</text><text x="0" y="28" font-size="22" font-weight="700" fill="var(--cf-text)">15</text><g transform="translate(0,40)"><svg width="64" height="14" viewBox="0 0 64 14" preserveAspectRatio="none"><path d="M0 0 L2.13 0 L4.27 0 L6.4 0 L8.53 0 L10.67 0 L12.8 0 L14.93 0 L17.07 0 L19.2 0 L21.33 0 L23.47 0 L25.6 0 L27.73 0 L29.87 0 L32 14 L34.13 14 L36.27 14 L38.4 14 L40.53 14 L42.67 14 L44.8 14 L46.93 14 L49.07 14 L51.2 14 L53.33 14 L55.47 14 L57.6 14 L59.73 14 L61.87 14 L64 14 L64 14 L0 14 Z" fill="var(--cf-spark-bg)" stroke="none"/><path d="M0 0 L2.13 0 L4.27 0 L6.4 0 L8.53 0 L10.67 0 L12.8 0 L14.93 0 L17.07 0 L19.2 0 L21.33 0 L23.47 0 L25.6 0 L27.73 0 L29.87 0 L32 14 L34.13 14 L36.27 14 L38.4 14 L40.53 14 L42.67 14 L44.8 14 L46.93 14 L49.07 14 L51.2 14 L53.33 14 L55.47 14 L57.6 14 L59.73 14 L61.87 14 L64 14" fill="none" stroke="var(--cf-spark)" stroke-width="1.4" stroke-linecap="round" stroke-linejoin="round"/></svg></g></g><g transform="translate(565.2,46)"><text x="0" y="0" font-size="9" font-weight="600" fill="var(--cf-text-dim)" letter-spacing="0.8">TESTS</text><text x="0" y="28" font-size="22" font-weight="700" fill="var(--cf-text)">422</text><g transform="translate(0,40)"><svg width="64" height="14" viewBox="0 0 64 14" preserveAspectRatio="none"><path d="M0 14 L2.13 13.87 L4.27 13.87 L6.4 13.87 L8.53 13.87 L10.67 13.87 L12.8 13.87 L14.93 13.87 L17.07 13.87 L19.2 13.81 L21.33 13.81 L23.47 13.74 L25.6 13.68 L27.73 13.68 L29.87 13.74 L32 0.26 L34.13 0.26 L36.27 0.26 L38.4 0.26 L40.53 0.26 L42.67 0.26 L44.8 0.26 L46.93 0.19 L49.07 0.13 L51.2 0.06 L53.33 0.06 L55.47 0.06 L57.6 0.06 L59.73 0.06 L61.87 0.06 L64 0 L64 14 L0 14 Z" fill="var(--cf-spark-bg)" stroke="none"/><path d="M0 14 L2.13 13.87 L4.27 13.87 L6.4 13.87 L8.53 13.87 L10.67 13.87 L12.8 13.87 L14.93 13.87 L17.07 13.87 L19.2 13.81 L21.33 13.81 L23.47 13.74 L25.6 13.68 L27.73 13.68 L29.87 13.74 L32 0.26 L34.13 0.26 L36.27 0.26 L38.4 0.26 L40.53 0.26 L42.67 0.26 L44.8 0.26 L46.93 0.19 L49.07 0.13 L51.2 0.06 L53.33 0.06 L55.47 0.06 L57.6 0.06 L59.73 0.06 L61.87 0.06 L64 0" fill="none" stroke="var(--cf-spark)" stroke-width="1.4" stroke-linecap="round" stroke-linejoin="round"/></svg></g></g><a href="https://github.com/braedonsaunders/codeflow" target="_blank"><text x="702" y="130" text-anchor="end" font-size="9" fill="var(--cf-text-faint)">powered by <tspan font-weight="600" fill="var(--cf-accent)">codeflow</tspan></text></a></svg>