<svg xmlns="http://www.w3.org/2000/svg" width="720" height="140" viewBox="0 0 720 140" font-family="-apple-system,BlinkMacSystemFont,Segoe UI,Helvetica,Arial,sans-serif"><style>svg{--cf-bg:#0d1117;--cf-bg-alt:#161b22;--cf-border:#21262d;--cf-text:#e6edf3;--cf-text-dim:#8b949e;--cf-text-faint:#6e7681;--cf-accent:#5eead4;--cf-accent-soft:rgba(94,234,212,0.16);--cf-green:#3fb950;--cf-amber:#d29922;--cf-red:#f85149;--cf-spark:#5eead4;--cf-spark-bg:rgba(94,234,212,0.18)}@media (prefers-color-scheme: light){svg{--cf-bg:#ffffff;--cf-bg-alt:#f6f8fa;--cf-border:#d0d7de;--cf-text:#1f2328;--cf-text-dim:#656d76;--cf-text-faint:#8c959f;--cf-accent:#0d9488;--cf-accent-soft:rgba(13,148,136,0.12);--cf-green:#1a7f37;--cf-amber:#9a6700;--cf-red:#cf222e;--cf-spark:#0d9488;--cf-spark-bg:rgba(13,148,136,0.12)}}</style><rect width="720" height="140" rx="12" fill="var(--cf-bg)" stroke="var(--cf-border)"/><text x="18" y="26" font-size="13" font-weight="600" fill="var(--cf-text)">braedonsaunders/openbooks</text><text x="702" y="26" text-anchor="end" font-size="10" fill="var(--cf-text-faint)" font-family="ui-monospace,SFMono-Regular,Menlo,monospace">@a5fe059</text><g transform="translate(18,46)"><text x="0" y="0" font-size="9" font-weight="600" fill="var(--cf-text-dim)" letter-spacing="0.8">FILES</text><text x="0" y="28" font-size="22" font-weight="700" fill="var(--cf-text)">3K</text><g transform="translate(0,40)"><svg width="64" height="14" viewBox="0 0 64 14" preserveAspectRatio="none"><path d="M0 14 L2.13 14 L4.27 14 L6.4 13.53 L8.53 13.53 L10.67 12.13 L12.8 12.13 L14.93 11.67 L17.07 11.2 L19.2 10.73 L21.33 10.27 L23.47 9.8 L25.6 9.8 L27.73 8.87 L29.87 4.2 L32 3.73 L34.13 3.73 L36.27 2.8 L38.4 2.8 L40.53 2.33 L42.67 2.33 L44.8 2.33 L46.93 1.87 L49.07 1.87 L51.2 1.4 L53.33 0.93 L55.47 0.47 L57.6 0.47 L59.73 0 L61.87 0 L64 0 L64 14 L0 14 Z" fill="var(--cf-spark-bg)" stroke="none"/><path d="M0 14 L2.13 14 L4.27 14 L6.4 13.53 L8.53 13.53 L10.67 12.13 L12.8 12.13 L14.93 11.67 L17.07 11.2 L19.2 10.73 L21.33 10.27 L23.47 9.8 L25.6 9.8 L27.73 8.87 L29.87 4.2 L32 3.73 L34.13 3.73 L36.27 2.8 L38.4 2.8 L40.53 2.33 L42.67 2.33 L44.8 2.33 L46.93 1.87 L49.07 1.87 L51.2 1.4 L53.33 0.93 L55.47 0.47 L57.6 0.47 L59.73 0 L61.87 0 L64 0" fill="none" stroke="var(--cf-spark)" stroke-width="1.4" stroke-linecap="round" stroke-linejoin="round"/></svg></g></g><g transform="translate(154.8,46)"><text x="0" y="0" font-size="9" font-weight="600" fill="var(--cf-text-dim)" letter-spacing="0.8">FNS</text><text x="0" y="28" font-size="22" font-weight="700" fill="var(--cf-text)">8.8K</text><g transform="translate(0,40)"><svg width="64" height="14" viewBox="0 0 64 14" preserveAspectRatio="none"><path d="M0 14 L2.13 13.95 L4.27 13.9 L6.4 13.59 L8.53 13.53 L10.67 12.19 L12.8 12.13 L14.93 12.03 L17.07 12.03 L19.2 11.51 L21.33 11.3 L23.47 11.15 L25.6 11.1 L27.73 10.58 L29.87 5.5 L32 5.44 L34.13 5.44 L36.27 4.93 L38.4 4.93 L40.53 4.2 L42.67 4.04 L44.8 4.04 L46.93 3.79 L49.07 3.42 L51.2 2.59 L53.33 1.92 L55.47 1.5 L57.6 1.3 L59.73 0 L61.87 0 L64 0 L64 14 L0 14 Z" fill="var(--cf-spark-bg)" stroke="none"/><path d="M0 14 L2.13 13.95 L4.27 13.9 L6.4 13.59 L8.53 13.53 L10.67 12.19 L12.8 12.13 L14.93 12.03 L17.07 12.03 L19.2 11.51 L21.33 11.3 L23.47 11.15 L25.6 11.1 L27.73 10.58 L29.87 5.5 L32 5.44 L34.13 5.44 L36.27 4.93 L38.4 4.93 L40.53 4.2 L42.67 4.04 L44.8 4.04 L46.93 3.79 L49.07 3.42 L51.2 2.59 L53.33 1.92 L55.47 1.5 L57.6 1.3 L59.73 0 L61.87 0 L64 0" fill="none" stroke="var(--cf-spark)" stroke-width="1.4" stroke-linecap="round" stroke-linejoin="round"/></svg></g></g><g transform="translate(291.6,46)"><text x="0" y="0" font-size="9" font-weight="600" fill="var(--cf-text-dim)" letter-spacing="0.8">LOC</text><text x="0" y="28" font-size="22" font-weight="700" fill="var(--cf-text)">728.5K</text><g transform="translate(0,40)"><svg width="64" height="14" viewBox="0 0 64 14" preserveAspectRatio="none"><path d="M0 14 L2.13 13.87 L4.27 13.53 L6.4 13.18 L8.53 12.97 L10.67 11.22 L12.8 11.05 L14.93 10.93 L17.07 10.72 L19.2 10.46 L21.33 10.25 L23.47 10.09 L25.6 9.99 L27.73 9.64 L29.87 5.41 L32 5.16 L34.13 5.07 L36.27 4.4 L38.4 4.35 L40.53 4.04 L42.67 3.82 L44.8 3.75 L46.93 3.27 L49.07 2.9 L51.2 2.49 L53.33 1.73 L55.47 1.26 L57.6 1.1 L59.73 0.3 L61.87 0.12 L64 0 L64 14 L0 14 Z" fill="var(--cf-spark-bg)" stroke="none"/><path d="M0 14 L2.13 13.87 L4.27 13.53 L6.4 13.18 L8.53 12.97 L10.67 11.22 L12.8 11.05 L14.93 10.93 L17.07 10.72 L19.2 10.46 L21.33 10.25 L23.47 10.09 L25.6 9.99 L27.73 9.64 L29.87 5.41 L32 5.16 L34.13 5.07 L36.27 4.4 L38.4 4.35 L40.53 4.04 L42.67 3.82 L44.8 3.75 L46.93 3.27 L49.07 2.9 L51.2 2.49 L53.33 1.73 L55.47 1.26 L57.6 1.1 L59.73 0.3 L61.87 0.12 L64 0" fill="none" stroke="var(--cf-spark)" stroke-width="1.4" stroke-linecap="round" stroke-linejoin="round"/></svg></g></g><g transform="translate(428.40000000000003,46)"><text x="0" y="0" font-size="9" font-weight="600" fill="var(--cf-text-dim)" letter-spacing="0.8">LANGS</text><text x="0" y="28" font-size="22" font-weight="700" fill="var(--cf-text)">15</text><g transform="translate(0,40)"><svg width="64" height="14" viewBox="0 0 64 14" preserveAspectRatio="none"><path d="M0 7 L2.13 7 L4.27 7 L6.4 7 L8.53 7 L10.67 7 L12.8 7 L14.93 7 L17.07 7 L19.2 7 L21.33 7 L23.47 7 L25.6 7 L27.73 7 L29.87 7 L32 7 L34.13 7 L36.27 7 L38.4 7 L40.53 7 L42.67 7 L44.8 7 L46.93 7 L49.07 7 L51.2 7 L53.33 7 L55.47 7 L57.6 7 L59.73 7 L61.87 7 L64 7 L64 14 L0 14 Z" fill="var(--cf-spark-bg)" stroke="none"/><path d="M0 7 L2.13 7 L4.27 7 L6.4 7 L8.53 7 L10.67 7 L12.8 7 L14.93 7 L17.07 7 L19.2 7 L21.33 7 L23.47 7 L25.6 7 L27.73 7 L29.87 7 L32 7 L34.13 7 L36.27 7 L38.4 7 L40.53 7 L42.67 7 L44.8 7 L46.93 7 L49.07 7 L51.2 7 L53.33 7 L55.47 7 L57.6 7 L59.73 7 L61.87 7 L64 7" fill="none" stroke="var(--cf-spark)" stroke-width="1.4" stroke-linecap="round" stroke-linejoin="round"/></svg></g></g><g transform="translate(565.2,46)"><text x="0" y="0" font-size="9" font-weight="600" fill="var(--cf-text-dim)" letter-spacing="0.8">TESTS</text><text x="0" y="28" font-size="22" font-weight="700" fill="var(--cf-text)">483</text><g transform="translate(0,40)"><svg width="64" height="14" viewBox="0 0 64 14" preserveAspectRatio="none"><path d="M0 14 L2.13 14 L4.27 14 L6.4 13.46 L8.53 13.46 L10.67 11.85 L12.8 11.85 L14.93 11.31 L17.07 10.77 L19.2 10.23 L21.33 9.69 L23.47 9.15 L25.6 9.15 L27.73 8.08 L29.87 3.23 L32 3.23 L34.13 3.23 L36.27 2.69 L38.4 2.69 L40.53 2.15 L42.67 2.15 L44.8 2.15 L46.93 1.62 L49.07 1.62 L51.2 1.08 L53.33 0.54 L55.47 0.54 L57.6 0.54 L59.73 0 L61.87 0 L64 0 L64 14 L0 14 Z" fill="var(--cf-spark-bg)" stroke="none"/><path d="M0 14 L2.13 14 L4.27 14 L6.4 13.46 L8.53 13.46 L10.67 11.85 L12.8 11.85 L14.93 11.31 L17.07 10.77 L19.2 10.23 L21.33 9.69 L23.47 9.15 L25.6 9.15 L27.73 8.08 L29.87 3.23 L32 3.23 L34.13 3.23 L36.27 2.69 L38.4 2.69 L40.53 2.15 L42.67 2.15 L44.8 2.15 L46.93 1.62 L49.07 1.62 L51.2 1.08 L53.33 0.54 L55.47 0.54 L57.6 0.54 L59.73 0 L61.87 0 L64 0" fill="none" stroke="var(--cf-spark)" stroke-width="1.4" stroke-linecap="round" stroke-linejoin="round"/></svg></g></g><a href="https://github.com/braedonsaunders/codeflow" target="_blank"><text x="702" y="130" text-anchor="end" font-size="9" fill="var(--cf-text-faint)">powered by <tspan font-weight="600" fill="var(--cf-accent)">codeflow</tspan></text></a></svg>