<svg xmlns="http://www.w3.org/2000/svg" width="720" height="140" viewBox="0 0 720 140" font-family="-apple-system,BlinkMacSystemFont,Segoe UI,Helvetica,Arial,sans-serif"><style>svg{--cf-bg:#0d1117;--cf-bg-alt:#161b22;--cf-border:#21262d;--cf-text:#e6edf3;--cf-text-dim:#8b949e;--cf-text-faint:#6e7681;--cf-accent:#5eead4;--cf-accent-soft:rgba(94,234,212,0.16);--cf-green:#3fb950;--cf-amber:#d29922;--cf-red:#f85149;--cf-spark:#5eead4;--cf-spark-bg:rgba(94,234,212,0.18)}@media (prefers-color-scheme: light){svg{--cf-bg:#ffffff;--cf-bg-alt:#f6f8fa;--cf-border:#d0d7de;--cf-text:#1f2328;--cf-text-dim:#656d76;--cf-text-faint:#8c959f;--cf-accent:#0d9488;--cf-accent-soft:rgba(13,148,136,0.12);--cf-green:#1a7f37;--cf-amber:#9a6700;--cf-red:#cf222e;--cf-spark:#0d9488;--cf-spark-bg:rgba(13,148,136,0.12)}}</style><rect width="720" height="140" rx="12" fill="var(--cf-bg)" stroke="var(--cf-border)"/><text x="18" y="26" font-size="13" font-weight="600" fill="var(--cf-text)">braedonsaunders/openbooks</text><text x="702" y="26" text-anchor="end" font-size="10" fill="var(--cf-text-faint)" font-family="ui-monospace,SFMono-Regular,Menlo,monospace">@e919316</text><g transform="translate(18,46)"><text x="0" y="0" font-size="9" font-weight="600" fill="var(--cf-text-dim)" letter-spacing="0.8">FILES</text><text x="0" y="28" font-size="22" font-weight="700" fill="var(--cf-text)">3K</text><g transform="translate(0,40)"><svg width="64" height="14" viewBox="0 0 64 14" preserveAspectRatio="none"><path d="M0 14 L2.13 13.15 L4.27 13.15 L6.4 12.73 L8.53 11.03 L10.67 11.03 L12.8 9.76 L14.93 9.33 L17.07 8.91 L19.2 8.48 L21.33 8.06 L23.47 8.06 L25.6 8.06 L27.73 8.06 L29.87 7.64 L32 7.64 L34.13 7.64 L36.27 7.64 L38.4 7.21 L40.53 7.21 L42.67 6.36 L44.8 6.36 L46.93 6.36 L49.07 2.97 L51.2 1.27 L53.33 0.42 L55.47 0.42 L57.6 0.42 L59.73 0.42 L61.87 0.42 L64 0 L64 14 L0 14 Z" fill="var(--cf-spark-bg)" stroke="none"/><path d="M0 14 L2.13 13.15 L4.27 13.15 L6.4 12.73 L8.53 11.03 L10.67 11.03 L12.8 9.76 L14.93 9.33 L17.07 8.91 L19.2 8.48 L21.33 8.06 L23.47 8.06 L25.6 8.06 L27.73 8.06 L29.87 7.64 L32 7.64 L34.13 7.64 L36.27 7.64 L38.4 7.21 L40.53 7.21 L42.67 6.36 L44.8 6.36 L46.93 6.36 L49.07 2.97 L51.2 1.27 L53.33 0.42 L55.47 0.42 L57.6 0.42 L59.73 0.42 L61.87 0.42 L64 0" fill="none" stroke="var(--cf-spark)" stroke-width="1.4" stroke-linecap="round" stroke-linejoin="round"/></svg></g></g><g transform="translate(154.8,46)"><text x="0" y="0" font-size="9" font-weight="600" fill="var(--cf-text-dim)" letter-spacing="0.8">FNS</text><text x="0" y="28" font-size="22" font-weight="700" fill="var(--cf-text)">8.4K</text><g transform="translate(0,40)"><svg width="64" height="14" viewBox="0 0 64 14" preserveAspectRatio="none"><path d="M0 14 L2.13 11.72 L4.27 11.64 L6.4 11.39 L8.53 9.24 L10.67 9.24 L12.8 9.11 L14.93 8.99 L17.07 8.82 L19.2 7.99 L21.33 7.58 L23.47 7.58 L25.6 7.58 L27.73 7.58 L29.87 7.46 L32 7.46 L34.13 7.37 L36.27 7.25 L38.4 7.21 L40.53 7.21 L42.67 6.79 L44.8 6.75 L46.93 6.71 L49.07 3.64 L51.2 3.02 L53.33 2.03 L55.47 2.03 L57.6 1.82 L59.73 1.82 L61.87 0.08 L64 0 L64 14 L0 14 Z" fill="var(--cf-spark-bg)" stroke="none"/><path d="M0 14 L2.13 11.72 L4.27 11.64 L6.4 11.39 L8.53 9.24 L10.67 9.24 L12.8 9.11 L14.93 8.99 L17.07 8.82 L19.2 7.99 L21.33 7.58 L23.47 7.58 L25.6 7.58 L27.73 7.58 L29.87 7.46 L32 7.46 L34.13 7.37 L36.27 7.25 L38.4 7.21 L40.53 7.21 L42.67 6.79 L44.8 6.75 L46.93 6.71 L49.07 3.64 L51.2 3.02 L53.33 2.03 L55.47 2.03 L57.6 1.82 L59.73 1.82 L61.87 0.08 L64 0" fill="none" stroke="var(--cf-spark)" stroke-width="1.4" stroke-linecap="round" stroke-linejoin="round"/></svg></g></g><g transform="translate(291.6,46)"><text x="0" y="0" font-size="9" font-weight="600" fill="var(--cf-text-dim)" letter-spacing="0.8">LOC</text><text x="0" y="28" font-size="22" font-weight="700" fill="var(--cf-text)">700.2K</text><g transform="translate(0,40)"><svg width="64" height="14" viewBox="0 0 64 14" preserveAspectRatio="none"><path d="M0 14 L2.13 13.19 L4.27 13.05 L6.4 12.85 L8.53 11.59 L10.67 11.51 L12.8 10.96 L14.93 10.75 L17.07 10.62 L19.2 10.24 L21.33 9.56 L23.47 9.44 L25.6 9.35 L27.73 9.07 L29.87 8.72 L32 8.62 L34.13 8.48 L36.27 8.3 L38.4 8.07 L40.53 7.98 L42.67 7.32 L44.8 7.16 L46.93 7.05 L49.07 4.6 L51.2 2.69 L53.33 2.03 L55.47 1.81 L57.6 1.43 L59.73 1.37 L61.87 0.1 L64 0 L64 14 L0 14 Z" fill="var(--cf-spark-bg)" stroke="none"/><path d="M0 14 L2.13 13.19 L4.27 13.05 L6.4 12.85 L8.53 11.59 L10.67 11.51 L12.8 10.96 L14.93 10.75 L17.07 10.62 L19.2 10.24 L21.33 9.56 L23.47 9.44 L25.6 9.35 L27.73 9.07 L29.87 8.72 L32 8.62 L34.13 8.48 L36.27 8.3 L38.4 8.07 L40.53 7.98 L42.67 7.32 L44.8 7.16 L46.93 7.05 L49.07 4.6 L51.2 2.69 L53.33 2.03 L55.47 1.81 L57.6 1.43 L59.73 1.37 L61.87 0.1 L64 0" fill="none" stroke="var(--cf-spark)" stroke-width="1.4" stroke-linecap="round" stroke-linejoin="round"/></svg></g></g><g transform="translate(428.40000000000003,46)"><text x="0" y="0" font-size="9" font-weight="600" fill="var(--cf-text-dim)" letter-spacing="0.8">LANGS</text><text x="0" y="28" font-size="22" font-weight="700" fill="var(--cf-text)">15</text><g transform="translate(0,40)"><svg width="64" height="14" viewBox="0 0 64 14" preserveAspectRatio="none"><path d="M0 7 L2.13 7 L4.27 7 L6.4 7 L8.53 7 L10.67 7 L12.8 7 L14.93 7 L17.07 7 L19.2 7 L21.33 7 L23.47 7 L25.6 7 L27.73 7 L29.87 7 L32 7 L34.13 7 L36.27 7 L38.4 7 L40.53 7 L42.67 7 L44.8 7 L46.93 7 L49.07 7 L51.2 7 L53.33 7 L55.47 7 L57.6 7 L59.73 7 L61.87 7 L64 7 L64 14 L0 14 Z" fill="var(--cf-spark-bg)" stroke="none"/><path d="M0 7 L2.13 7 L4.27 7 L6.4 7 L8.53 7 L10.67 7 L12.8 7 L14.93 7 L17.07 7 L19.2 7 L21.33 7 L23.47 7 L25.6 7 L27.73 7 L29.87 7 L32 7 L34.13 7 L36.27 7 L38.4 7 L40.53 7 L42.67 7 L44.8 7 L46.93 7 L49.07 7 L51.2 7 L53.33 7 L55.47 7 L57.6 7 L59.73 7 L61.87 7 L64 7" fill="none" stroke="var(--cf-spark)" stroke-width="1.4" stroke-linecap="round" stroke-linejoin="round"/></svg></g></g><g transform="translate(565.2,46)"><text x="0" y="0" font-size="9" font-weight="600" fill="var(--cf-text-dim)" letter-spacing="0.8">TESTS</text><text x="0" y="28" font-size="22" font-weight="700" fill="var(--cf-text)">451</text><g transform="translate(0,40)"><svg width="64" height="14" viewBox="0 0 64 14" preserveAspectRatio="none"><path d="M0 14 L2.13 13.03 L4.27 13.03 L6.4 12.55 L8.53 10.62 L10.67 10.62 L12.8 9.66 L14.93 9.17 L17.07 8.69 L19.2 8.21 L21.33 7.72 L23.47 7.72 L25.6 7.72 L27.73 7.72 L29.87 7.24 L32 7.24 L34.13 7.24 L36.27 7.24 L38.4 6.76 L40.53 6.76 L42.67 6.28 L44.8 6.28 L46.93 6.28 L49.07 2.41 L51.2 0.97 L53.33 0 L55.47 0 L57.6 0 L59.73 0 L61.87 0 L64 0 L64 14 L0 14 Z" fill="var(--cf-spark-bg)" stroke="none"/><path d="M0 14 L2.13 13.03 L4.27 13.03 L6.4 12.55 L8.53 10.62 L10.67 10.62 L12.8 9.66 L14.93 9.17 L17.07 8.69 L19.2 8.21 L21.33 7.72 L23.47 7.72 L25.6 7.72 L27.73 7.72 L29.87 7.24 L32 7.24 L34.13 7.24 L36.27 7.24 L38.4 6.76 L40.53 6.76 L42.67 6.28 L44.8 6.28 L46.93 6.28 L49.07 2.41 L51.2 0.97 L53.33 0 L55.47 0 L57.6 0 L59.73 0 L61.87 0 L64 0" fill="none" stroke="var(--cf-spark)" stroke-width="1.4" stroke-linecap="round" stroke-linejoin="round"/></svg></g></g><a href="https://github.com/braedonsaunders/codeflow" target="_blank"><text x="702" y="130" text-anchor="end" font-size="9" fill="var(--cf-text-faint)">powered by <tspan font-weight="600" fill="var(--cf-accent)">codeflow</tspan></text></a></svg>